<svg width="25" height="25" viewBox="0 0 25 25" fill="none" xmlns="http://www.w3.org/2000/svg">
<g clip-path="url(#clip0_2_103)">
<g opacity="0.7">
<path d="M18.1251 7.5V15.625C18.1251 15.7908 18.0593 15.9497 17.942 16.0669C17.8248 16.1842 17.6659 16.25 17.5001 16.25C17.3343 16.25 17.1754 16.1842 17.0582 16.0669C16.941 15.9497 16.8751 15.7908 16.8751 15.625V9.00859L7.94229 17.9422C7.82502 18.0595 7.66596 18.1253 7.5001 18.1253C7.33425 18.1253 7.17519 18.0595 7.05792 17.9422C6.94064 17.8249 6.87476 17.6659 6.87476 17.5C6.87476 17.3341 6.94064 17.1751 7.05792 17.0578L15.9915 8.125H9.3751C9.20934 8.125 9.05037 8.05915 8.93316 7.94194C8.81595 7.82473 8.7501 7.66576 8.7501 7.5C8.7501 7.33424 8.81595 7.17527 8.93316 7.05806C9.05037 6.94085 9.20934 6.875 9.3751 6.875H17.5001C17.6659 6.875 17.8248 6.94085 17.942 7.05806C18.0593 7.17527 18.1251 7.33424 18.1251 7.5Z" fill="#171717"/>
</g>
</g>
<defs>
<clipPath id="clip0_2_103">
<rect width="25" height="25" fill="white"/>
</clipPath>
</defs>
</svg>
