<svg width="32" height="35" viewBox="0 0 32 35" fill="none" xmlns="http://www.w3.org/2000/svg">
<path d="M24.05 13.395C24.8633 12.785 25.464 11.9346 25.7672 10.9643C26.0703 9.99389 26.0604 8.95274 25.7389 7.98829C25.4174 7.02384 24.8007 6.18499 23.9759 5.59057C23.1512 4.99614 22.1604 4.67627 21.1437 4.67627H12.425C11.4084 4.67627 10.4175 4.99614 9.5928 5.59057C8.76807 6.18499 8.15129 7.02384 7.8298 7.98829C7.50832 8.95274 7.49844 9.99389 7.80156 10.9643C8.10469 11.9346 8.70544 12.785 9.51874 13.395C8.90295 13.8565 8.40598 14.4581 8.06899 15.1499C7.73199 15.8417 7.56467 16.6038 7.58089 17.3732C7.5971 18.1425 7.79639 18.8969 8.16223 19.5739C8.52808 20.2509 9.04996 20.831 9.68464 21.2661C8.96272 21.815 8.39284 22.539 8.02896 23.3697C7.66508 24.2004 7.51925 25.1102 7.60526 26.0129C7.69127 26.9157 8.00629 27.7816 8.52048 28.5286C9.03468 29.2756 9.73103 29.879 10.5436 30.2817C11.3562 30.6844 12.2581 30.8729 13.1639 30.8296C14.0698 30.7863 14.9495 30.5125 15.72 30.0341C16.4904 29.5557 17.126 28.8886 17.5665 28.0959C18.0071 27.3033 18.238 26.4113 18.2375 25.5044V21.145C19.2652 21.9158 20.557 22.2468 21.8288 22.0651C23.1005 21.8834 24.248 21.204 25.0187 20.1763C25.7895 19.1486 26.1205 17.8567 25.9388 16.585C25.7571 15.3133 25.0777 14.1658 24.05 13.395ZM16.3 20.1763H12.425C11.6542 20.1763 10.915 19.8701 10.37 19.325C9.82493 18.78 9.51874 18.0408 9.51874 17.27C9.51874 16.4992 9.82493 15.76 10.37 15.215C10.915 14.67 11.6542 14.3638 12.425 14.3638H16.3V20.1763ZM21.1437 12.4263H18.2375V6.61377H21.1437C21.9145 6.61377 22.6537 6.91996 23.1988 7.46499C23.7438 8.01002 24.05 8.74923 24.05 9.52002C24.05 10.2908 23.7438 11.03 23.1988 11.575C22.6537 12.1201 21.9145 12.4263 21.1437 12.4263Z" fill="#0E1C29" fill-opacity="0.5"/>
</svg>
