<svg width="12" height="12" viewBox="0 0 12 12" fill="none" xmlns="http://www.w3.org/2000/svg">
<path d="M11.835 0.659912V8.78491C11.8351 8.9086 11.7985 9.02953 11.7298 9.1324C11.6611 9.23527 11.5635 9.31546 11.4492 9.3628C11.335 9.41015 11.2092 9.42252 11.0879 9.39837C10.9666 9.37421 10.8552 9.31461 10.7678 9.2271L7.14749 5.60601L1.65218 11.1021C1.5349 11.2194 1.37584 11.2853 1.20999 11.2853C1.04414 11.2853 0.88508 11.2194 0.767804 11.1021C0.650529 10.9848 0.584644 10.8258 0.584644 10.6599C0.584644 10.4941 0.650529 10.335 0.767804 10.2177L6.2639 4.72241L2.6428 1.1021C2.5553 1.01469 2.49569 0.903282 2.47154 0.781979C2.44738 0.660676 2.45976 0.534933 2.5071 0.420668C2.55445 0.306404 2.63463 0.208756 2.7375 0.140087C2.84037 0.0714179 2.96131 0.034815 3.08499 0.0349123H11.21C11.3758 0.0349123 11.5347 0.10076 11.6519 0.217971C11.7691 0.335181 11.835 0.494152 11.835 0.659912Z" fill="white"/>
</svg>
