<svg width="16" height="13" viewBox="0 0 16 13" fill="none" xmlns="http://www.w3.org/2000/svg">
<path d="M15.5672 7.1021L9.94219 12.7271C9.85478 12.8146 9.74337 12.8742 9.62207 12.8984C9.50076 12.9225 9.37502 12.9101 9.26076 12.8628C9.14649 12.8155 9.04884 12.7353 8.98018 12.6324C8.91151 12.5295 8.8749 12.4086 8.875 12.2849V7.28492H1.375C1.20924 7.28492 1.05027 7.21907 0.933058 7.10186C0.815848 6.98465 0.75 6.82568 0.75 6.65992C0.75 6.49416 0.815848 6.33518 0.933058 6.21797C1.05027 6.10076 1.20924 6.03492 1.375 6.03492H8.875V1.03492C8.8749 0.911231 8.91151 0.790298 8.98018 0.687427C9.04884 0.584556 9.14649 0.504372 9.26076 0.457027C9.37502 0.409682 9.50076 0.397304 9.62207 0.42146C9.74337 0.445617 9.85478 0.505221 9.94219 0.592729L15.5672 6.21773C15.6253 6.27577 15.6714 6.3447 15.7029 6.42058C15.7343 6.49645 15.7505 6.57778 15.7505 6.65992C15.7505 6.74205 15.7343 6.82338 15.7029 6.89925C15.6714 6.97513 15.6253 7.04406 15.5672 7.1021Z" fill="#0E1C29"/>
</svg>
