<svg width="17" height="13" viewBox="0 0 17 13" fill="none" xmlns="http://www.w3.org/2000/svg">
<path d="M4.64799 7.61493C4.64979 7.65092 4.64425 7.68689 4.63171 7.72067C4.61917 7.75444 4.59989 7.78531 4.57505 7.8114C4.5502 7.83749 4.5203 7.85826 4.48718 7.87243C4.45406 7.8866 4.41839 7.89388 4.38237 7.89384H1.45252C1.33262 7.89402 1.21617 7.85363 1.12213 7.77924C1.02809 7.70486 0.961982 7.60084 0.934553 7.48411C0.917474 7.40422 0.918261 7.32153 0.936859 7.24198C0.955456 7.16242 0.991404 7.08796 1.04213 7.02392C1.51083 6.40234 2.13271 5.91294 2.84705 5.60349C2.53343 5.31754 2.2929 4.96061 2.14559 4.56259C1.99828 4.16457 1.94849 3.73705 2.00038 3.31583C2.05228 2.8946 2.20435 2.49195 2.44386 2.14159C2.68337 1.79122 3.00335 1.50335 3.37699 1.30208C3.75064 1.10081 4.16707 0.991996 4.59142 0.984761C5.01576 0.977526 5.43566 1.07208 5.81595 1.26049C6.19624 1.44891 6.52585 1.72571 6.77716 2.0677C7.02848 2.4097 7.19419 2.80694 7.26041 3.22614C7.26896 3.28252 7.25887 3.34014 7.23165 3.39025C7.20444 3.44035 7.16161 3.4802 7.10967 3.50372C6.37282 3.84437 5.74878 4.38868 5.31119 5.07242C4.8736 5.75616 4.64072 6.55081 4.64002 7.36259C4.64002 7.44759 4.64002 7.53126 4.64799 7.61493ZM16.7339 7.02325C16.2663 6.4024 15.6458 5.91326 14.933 5.60349C15.2466 5.31754 15.4871 4.96061 15.6345 4.56259C15.7818 4.16457 15.8316 3.73705 15.7797 3.31583C15.7278 2.8946 15.5757 2.49195 15.3362 2.14159C15.0967 1.79122 14.7767 1.50335 14.403 1.30208C14.0294 1.10081 13.613 0.991996 13.1886 0.984761C12.7643 0.977526 12.3444 1.07208 11.9641 1.26049C11.5838 1.44891 11.2542 1.72571 11.0029 2.0677C10.7516 2.4097 10.5859 2.80694 10.5196 3.22614C10.5111 3.28252 10.5212 3.34014 10.5484 3.39025C10.5756 3.44035 10.6184 3.4802 10.6704 3.50372C11.4072 3.84437 12.0313 4.38868 12.4689 5.07242C12.9064 5.75616 13.1393 6.55081 13.14 7.36259C13.14 7.44759 13.14 7.53126 13.1321 7.61493C13.1303 7.65092 13.1358 7.68689 13.1483 7.72067C13.1609 7.75444 13.1801 7.78531 13.205 7.8114C13.2298 7.83749 13.2597 7.85826 13.2929 7.87243C13.326 7.8866 13.3616 7.89388 13.3977 7.89384H16.3275C16.4474 7.89402 16.5639 7.85363 16.6579 7.77924C16.752 7.70486 16.8181 7.60084 16.8455 7.48411C16.8627 7.40407 16.8619 7.32121 16.8432 7.24152C16.8244 7.16182 16.7883 7.08727 16.7372 7.02325H16.7339ZM10.8238 9.89068C11.3527 9.48557 11.7415 8.92491 11.9353 8.28747C12.1292 7.65003 12.1184 6.96787 11.9045 6.33687C11.6907 5.70587 11.2844 5.15774 10.743 4.76954C10.2015 4.38133 9.55197 4.17255 8.88571 4.17255C8.21944 4.17255 7.56993 4.38133 7.02845 4.76954C6.48698 5.15774 6.08076 5.70587 5.86689 6.33687C5.65302 6.96787 5.64225 7.65003 5.83611 8.28747C6.02996 8.92491 6.41868 9.48557 6.94764 9.89068C6.00901 10.2974 5.22524 10.9939 4.71108 11.8782C4.66444 11.959 4.6399 12.0506 4.6399 12.1439C4.63991 12.2371 4.66447 12.3288 4.71111 12.4095C4.75775 12.4903 4.82483 12.5573 4.9056 12.604C4.98638 12.6506 5.07801 12.6751 5.17127 12.6751H12.6088C12.702 12.6751 12.7937 12.6506 12.8744 12.604C12.9552 12.5573 13.0223 12.4903 13.0689 12.4095C13.1156 12.3288 13.1401 12.2371 13.1401 12.1439C13.1401 12.0506 13.1156 11.959 13.069 11.8782C12.5537 10.9933 11.7685 10.2967 10.8284 9.89068H10.8238Z" fill="#0E1C29"/>
</svg>
