<svg width="18" height="18" viewBox="0 0 18 18" fill="none" xmlns="http://www.w3.org/2000/svg">
<g opacity="0.8">
<path d="M16.7675 4.40918V13.9717C16.7675 14.1126 16.7115 14.2477 16.6119 14.3473C16.5122 14.447 16.3771 14.5029 16.2362 14.5029H1.36121C1.22031 14.5029 1.08518 14.447 0.985556 14.3473C0.885927 14.2477 0.829956 14.1126 0.829956 13.9717C0.829956 13.8308 0.885927 13.6957 0.985556 13.596C1.08518 13.4964 1.22031 13.4404 1.36121 13.4404H4.54871V10.7842C4.54871 10.6433 4.60468 10.5082 4.70431 10.4085C4.80393 10.3089 4.93906 10.2529 5.07996 10.2529H8.26746V7.59668C8.26746 7.45578 8.32343 7.32066 8.42306 7.22103C8.52268 7.1214 8.65781 7.06543 8.79871 7.06543H11.9862V4.40918C11.9862 4.26828 12.0422 4.13316 12.1418 4.03353C12.2414 3.9339 12.3766 3.87793 12.5175 3.87793H16.2362C16.3771 3.87793 16.5122 3.9339 16.6119 4.03353C16.7115 4.13316 16.7675 4.26828 16.7675 4.40918Z" fill="#0E1C29"/>
</g>
</svg>
