<svg width="18" height="18" viewBox="0 0 18 18" fill="none" xmlns="http://www.w3.org/2000/svg">
<g opacity="0.8">
<path d="M9.06 2.03418C7.69407 2.03418 6.35882 2.43922 5.22309 3.19809C4.08737 3.95696 3.20218 5.03557 2.67946 6.29752C2.15674 7.55947 2.01997 8.94809 2.28645 10.2878C2.55293 11.6275 3.21069 12.858 4.17654 13.8239C5.1424 14.7897 6.37298 15.4475 7.71266 15.714C9.05234 15.9805 10.441 15.8437 11.7029 15.321C12.9649 14.7983 14.0435 13.9131 14.8023 12.7773C15.5612 11.6416 15.9663 10.3064 15.9663 8.94043C15.9643 7.10937 15.2361 5.35386 13.9413 4.05911C12.6466 2.76435 10.8911 2.03611 9.06 2.03418ZM9.06 13.1904C8.90239 13.1904 8.74833 13.1437 8.61728 13.0561C8.48624 12.9686 8.3841 12.8441 8.32378 12.6985C8.26347 12.5529 8.24769 12.3927 8.27844 12.2381C8.30918 12.0835 8.38508 11.9415 8.49652 11.8301C8.60797 11.7186 8.74996 11.6427 8.90454 11.612C9.05912 11.5812 9.21934 11.597 9.36495 11.6573C9.51056 11.7177 9.63502 11.8198 9.72258 11.9508C9.81014 12.0819 9.85688 12.2359 9.85688 12.3936C9.85688 12.6049 9.77292 12.8076 9.62348 12.957C9.47403 13.1065 9.27134 13.1904 9.06 13.1904ZM9.59125 9.95512V10.0029C9.59125 10.1438 9.53528 10.279 9.43565 10.3786C9.33602 10.4782 9.2009 10.5342 9.06 10.5342C8.9191 10.5342 8.78398 10.4782 8.68435 10.3786C8.58472 10.279 8.52875 10.1438 8.52875 10.0029V9.47168C8.52875 9.33078 8.58472 9.19566 8.68435 9.09603C8.78398 8.9964 8.9191 8.94043 9.06 8.94043C9.93856 8.94043 10.6538 8.34277 10.6538 7.6123C10.6538 6.88184 9.93856 6.28418 9.06 6.28418C8.18145 6.28418 7.46625 6.88184 7.46625 7.6123V7.87793C7.46625 8.01883 7.41028 8.15395 7.31065 8.25358C7.21102 8.35321 7.0759 8.40918 6.935 8.40918C6.7941 8.40918 6.65898 8.35321 6.55935 8.25358C6.45972 8.15395 6.40375 8.01883 6.40375 7.87793V7.6123C6.40375 6.29414 7.59508 5.22168 9.06 5.22168C10.5249 5.22168 11.7163 6.29414 11.7163 7.6123C11.7163 8.76645 10.8025 9.73266 9.59125 9.95512Z" fill="#0E1C29"/>
</g>
</svg>
