<svg width="18" height="18" viewBox="0 0 18 18" fill="none" xmlns="http://www.w3.org/2000/svg">
<g opacity="0.8">
<path d="M15.6238 5.08289L9.78002 1.88543C9.62388 1.79916 9.44841 1.75391 9.27002 1.75391C9.09163 1.75391 8.91616 1.79916 8.76002 1.88543L2.91627 5.08422C2.74938 5.17553 2.61007 5.30998 2.51289 5.47351C2.4157 5.63705 2.3642 5.82368 2.36377 6.01391V12.365C2.3642 12.5552 2.4157 12.7419 2.51289 12.9054C2.61007 13.0689 2.74938 13.2034 2.91627 13.2947L8.76002 16.4935C8.91616 16.5798 9.09163 16.625 9.27002 16.625C9.44841 16.625 9.62388 16.5798 9.78002 16.4935L15.6238 13.2947C15.7907 13.2034 15.93 13.0689 16.0272 12.9054C16.1243 12.7419 16.1758 12.5552 16.1763 12.365V6.01457C16.1762 5.824 16.1249 5.63696 16.0277 5.47304C15.9305 5.30912 15.791 5.17437 15.6238 5.08289ZM9.27002 8.65887L3.93428 5.737L9.27002 2.81512L14.6058 5.737L9.27002 8.65887ZM9.80127 15.2756V9.57727L15.1138 6.67V12.365L9.80127 15.2756Z" fill="#0E1C29"/>
</g>
</svg>
