<svg width="24" height="24" viewBox="0 0 24 24" fill="none" xmlns="http://www.w3.org/2000/svg">
<g clip-path="url(#clip0_49_7)">
<path d="M23.1981 0C22.6991 0.264 21.9891 0.675 21.4081 0.984C21.3962 3.06465 21.3962 5.14535 21.4081 7.226C22.4031 6.7 23.1691 6.392 23.1981 5.16V0ZM8.74315 0.181C7.29815 0.144 5.61315 0.65 4.47015 1.414C3.30015 2.214 2.48315 3.283 1.89815 4.593C1.37962 5.96881 1.04408 7.40678 0.900146 8.87C0.750146 10.353 0.772146 11.949 0.925146 13.547C1.19515 15.402 1.52615 17.271 2.54115 19.003C4.11115 21.623 6.85415 23.112 9.80315 23.193C13.2131 23.439 17.0361 23.723 21.2141 24C21.2361 21.995 21.2241 18.582 21.2141 17.75C18.0081 17.54 13.8161 17.226 10.1671 16.968C9.72415 16.925 9.27115 16.912 8.84315 16.796C7.75715 16.501 7.03715 15.994 6.46915 15.039C5.82615 13.932 5.59415 12.207 5.67215 10.745C5.78215 9.475 5.95915 8.335 6.91615 7.305C7.58515 6.745 8.22315 6.547 9.07715 6.465C14.2471 6.81 16.6861 6.995 21.2141 7.323C21.2461 6.19 21.2241 3.863 21.2141 1.094C16.5611 0.752 12.7761 0.474 8.74315 0.181ZM8.46215 9.881C8.63615 10.556 8.80015 11.186 9.19115 11.784C9.72815 12.616 10.5661 12.911 11.5791 12.661C12.3391 12.465 13.1601 12.016 13.9291 11.379L8.46215 9.881ZM21.4361 10.921L15.9891 11.61C16.7881 12.349 17.5411 12.978 18.5371 13.313C19.5251 13.632 20.3171 13.323 20.8451 12.536C21.0541 12.207 21.4051 11.388 21.4361 10.922V10.921ZM22.2781 17.382C21.8901 17.392 21.6131 17.58 21.4081 17.737C21.4101 19.535 21.4081 21.864 21.4081 23.96C21.9941 23.663 22.5431 23.316 23.2011 22.962C23.1961 21.508 23.2031 19.825 23.1961 18.255C23.1881 18.0184 23.0875 17.7944 22.916 17.6312C22.7445 17.4679 22.5149 17.3785 22.2781 17.382Z" fill="white" stroke="white"/>
</g>
<defs>
<clipPath id="clip0_49_7">
<rect width="24" height="24" fill="white"/>
</clipPath>
</defs>
</svg>
