<svg width="24" height="24" viewBox="0 0 24 24" fill="none" xmlns="http://www.w3.org/2000/svg">
<g clip-path="url(#clip0_49_11)">
<path d="M5.665 5.82289C4.998 5.82289 4.418 5.90289 3.924 6.06389C3.429 6.22489 2.994 6.41989 2.616 6.64689L2.274 6.08089H1.608L1.533 10.2129H2.216C2.33204 9.75725 2.47666 9.30936 2.649 8.87189C2.821 8.42689 3.043 8.02989 3.315 7.67989C3.58383 7.33284 3.92509 7.04858 4.315 6.84689C4.704 6.63689 5.17 6.53089 5.715 6.53089C6.309 6.53089 6.839 6.65289 7.305 6.89689C7.772 7.13689 8.178 7.49389 8.522 7.97189C8.861 8.43289 9.122 9.00789 9.305 9.69589C9.489 10.3859 9.58 11.1539 9.58 12.0039C9.58 12.1959 9.574 12.3839 9.563 12.5709H0V13.1789C0.133 13.1949 0.314 13.2229 0.541 13.2619C0.763 13.2949 0.944 13.3449 1.083 13.4119C1.24032 13.486 1.36691 13.6126 1.441 13.7699C1.508 13.9199 1.541 14.0979 1.541 14.3039V15.2199C1.541 15.8859 1.538 16.3359 1.533 16.5699C1.52448 16.7614 1.51348 16.9527 1.5 17.1439C2.21026 17.4675 2.94912 17.7243 3.707 17.9109C4.41318 18.0851 5.13764 18.1744 5.865 18.1769C6.62 18.1769 7.348 18.0359 8.048 17.7519C8.73413 17.4774 9.35738 17.0664 9.88 16.5439C10.4232 15.9927 10.8509 15.3385 11.138 14.6199C11.3263 14.1573 11.4569 13.6734 11.527 13.1789H12.473C12.548 13.6899 12.677 14.1709 12.862 14.6189C13.172 15.3749 13.592 16.0169 14.12 16.5439C14.6429 17.0665 15.2665 17.4775 15.953 17.7519C16.653 18.0359 17.38 18.1769 18.135 18.1769C18.84 18.1769 19.56 18.0879 20.293 17.9109C21.0512 17.7244 21.7904 17.4676 22.501 17.1439C22.489 16.9939 22.478 16.8029 22.467 16.5689C22.4598 16.1189 22.4571 15.6689 22.459 15.2189V14.3039C22.459 14.0979 22.492 13.9199 22.559 13.7699C22.6331 13.6126 22.7597 13.486 22.917 13.4119C23.057 13.3449 23.237 13.2949 23.459 13.2619C23.687 13.2229 23.867 13.1949 24 13.1789V12.5709H14.437C14.4254 12.3821 14.4198 12.193 14.42 12.0039C14.42 11.1539 14.512 10.3849 14.695 9.69589C14.878 9.00789 15.139 8.43289 15.478 7.97189C15.822 7.49389 16.228 7.13589 16.694 6.89689C17.161 6.65289 17.691 6.53089 18.286 6.53089C18.83 6.53089 19.296 6.63589 19.685 6.84689C20.0749 7.04858 20.4162 7.33284 20.685 7.67989C20.957 8.02989 21.179 8.42689 21.351 8.87189C21.523 9.31089 21.668 9.75789 21.784 10.2129H22.468L22.393 6.08089H21.726L21.384 6.64689C20.9718 6.40367 20.5333 6.20809 20.077 6.06389C19.582 5.90389 19.002 5.82289 18.335 5.82289C17.5285 5.81742 16.7293 5.97596 15.986 6.28889C15.275 6.58286 14.6335 7.02266 14.103 7.57989C13.5514 8.15817 13.121 8.84088 12.837 9.58789C12.5366 10.3868 12.3867 11.2344 12.395 12.0879C12.395 12.2519 12.402 12.4119 12.412 12.5709H11.589C11.599 12.4119 11.605 12.2509 11.605 12.0869C11.605 11.1869 11.458 10.3549 11.164 9.58789C10.8797 8.8408 10.449 8.15808 9.897 7.57989C9.36668 7.02313 8.72557 6.58369 8.015 6.28989C7.27141 5.97657 6.47189 5.81768 5.665 5.82289ZM5.182 13.1789H9.502C9.45929 13.4992 9.3965 13.8165 9.314 14.1289C9.15234 14.7428 8.88428 15.3236 8.522 15.8449C8.18873 16.3291 7.74656 16.7285 7.231 17.0109C6.714 17.2939 6.128 17.4359 5.473 17.4359C5.01874 17.4418 4.56715 17.3656 4.14 17.2109C3.735 17.0609 3.449 16.9029 3.282 16.7359C3.23774 16.4463 3.21568 16.1538 3.216 15.8609C3.21079 15.6109 3.20812 15.3609 3.208 15.1109V14.4609C3.208 14.2289 3.241 14.0229 3.308 13.8449C3.33916 13.7532 3.39046 13.6697 3.45812 13.6005C3.52578 13.5313 3.60809 13.4781 3.699 13.4449C3.882 13.3619 4.132 13.3009 4.449 13.2619C4.69221 13.2251 4.93672 13.1974 5.182 13.1789ZM14.498 13.1789H18.818C18.996 13.1889 19.24 13.2179 19.551 13.2619C19.868 13.3009 20.118 13.3619 20.301 13.4449C20.501 13.5289 20.631 13.6619 20.693 13.8449C20.759 14.0229 20.793 14.2289 20.793 14.4619V15.1119C20.793 15.3169 20.789 15.5669 20.784 15.8619C20.784 16.1559 20.762 16.4469 20.718 16.7359C20.551 16.9029 20.265 17.0609 19.86 17.2109C19.46 17.3609 19.015 17.4359 18.527 17.4359C17.871 17.4359 17.285 17.2939 16.769 17.0109C16.2534 16.7285 15.8113 16.3291 15.478 15.8449C15.1156 15.3233 14.8476 14.7421 14.686 14.1279C14.6035 13.8155 14.5407 13.4992 14.498 13.1789Z" fill="white" stroke="white"/>
</g>
<defs>
<clipPath id="clip0_49_11">
<rect width="24" height="24" fill="white"/>
</clipPath>
</defs>
</svg>
