<svg width="66" height="66" viewBox="0 0 66 66" fill="none" xmlns="http://www.w3.org/2000/svg">
<path d="M65.0684 27.589L58.5887 14.6245C58.35 14.1474 58.0196 13.7219 57.6164 13.3724C57.2133 13.0229 56.7452 12.7562 56.239 12.5877C55.7328 12.4191 55.1983 12.3519 54.6661 12.3899C54.1339 12.4279 53.6144 12.5703 53.1373 12.8091L46.8227 15.9652L33.5205 12.446C33.1792 12.3572 32.8208 12.3572 32.4795 12.446L19.1773 15.9652L12.8627 12.8091C12.3856 12.5703 11.8661 12.4279 11.3339 12.3899C10.8017 12.3519 10.2672 12.4191 9.76098 12.5877C9.25476 12.7562 8.78671 13.0229 8.38355 13.3724C7.9804 13.7219 7.65003 14.1474 7.41133 14.6245L0.93164 27.5864C0.692857 28.0636 0.550401 28.5831 0.512407 29.1153C0.474414 29.6475 0.541628 30.1819 0.71021 30.6882C0.878792 31.1944 1.14544 31.6624 1.49493 32.0656C1.84441 32.4687 2.26989 32.7991 2.74707 33.0378L9.60254 36.4681L23.6918 46.5304C23.8994 46.6781 24.1328 46.7857 24.3799 46.8478L40.6299 50.9103C40.9702 50.9956 41.3268 50.9914 41.665 50.8979C42.0032 50.8045 42.3114 50.625 42.5596 50.3771L52.7158 40.2208L56.5447 36.3919L63.2529 33.0378C64.216 32.5557 64.9482 31.7109 65.2886 30.6892C65.629 29.6675 65.5498 28.5523 65.0684 27.589ZM51.1314 36.0618L42.3945 29.0642C42.0031 28.7507 41.5096 28.5931 41.009 28.6217C40.5083 28.6503 40.036 28.8631 39.6828 29.2191C35.1607 33.7741 30.1207 33.1978 26.9062 31.1665L37.8852 20.5025H45.9619L52.8707 34.3175L51.1314 36.0618ZM40.5004 46.6903L25.7434 43.0011L13.2512 34.0788L20.3605 19.8601L33 16.511L35.4883 17.1687L24.0625 28.2593L24.0422 28.2821C23.6121 28.7122 23.2841 29.2334 23.0823 29.8073C22.8805 30.3811 22.8102 30.9929 22.8765 31.5975C22.9428 32.2021 23.144 32.7842 23.4653 33.3006C23.7866 33.8171 24.2197 34.2549 24.7328 34.5816C29.9531 37.9153 36.2525 37.3745 41.2139 33.312L48.2344 38.9513L40.5004 46.6903ZM33.9699 55.5263C33.8602 55.9653 33.607 56.3551 33.2505 56.6339C32.894 56.9126 32.4547 57.0643 32.0021 57.065C31.8353 57.0647 31.669 57.0443 31.507 57.004L20.9166 54.3558C20.6691 54.2947 20.4356 54.187 20.2285 54.0384L13.5381 49.2599C13.1267 48.9369 12.8558 48.4677 12.7817 47.9499C12.7076 47.4321 12.8361 46.9058 13.1404 46.4804C13.4448 46.055 13.9014 45.7634 14.4154 45.6663C14.9293 45.5692 15.4609 45.6741 15.8994 45.9591L22.275 50.5142L32.4922 53.0634C33.0147 53.1941 33.4639 53.527 33.741 53.9889C34.0181 54.4507 34.1005 55.0037 33.9699 55.5263Z" fill="white"/>
</svg>
